<svg width="206" height="231" viewBox="0 0 206 231" fill="none" xmlns="http://www.w3.org/2000/svg">
<path d="M143.143 84C143.143 96.1503 133.293 106 121.143 106C108.992 106 99.1426 96.1503 99.1426 84C99.1426 71.8497 108.992 62 121.143 62C133.293 62 143.143 71.8497 143.143 84Z" fill="#FFC131"/>
<ellipse cx="84.1426" cy="147" rx="22" ry="22" transform="rotate(180 84.1426 147)" fill="#24C8DB"/>
<path fill-rule="evenodd" clip-rule="evenodd" d="M166.738 154.548C157.86 149.985 148.023 148.324 138.244 149.784C135.299 150.177 132.378 150.583 129.522 150.994C125.847 151.493 122.257 151.986 118.756 152.509C109.899 154.024 101.686 156.561 94.1341 160.548C85.0541 165.405 77.2124 172.414 71.2124 180.548C77.2124 172.414 85.0541 165.405 94.1341 160.548C101.686 156.561 109.899 154.024 118.756 152.509C122.257 151.986 125.847 151.493 129.522 150.994C132.378 150.583 135.299 150.177 138.244 149.784C148.023 148.324 157.86 149.985 166.738 154.548Z" fill="#FFC131"/>
<path fill-rule="evenodd" clip-rule="evenodd" d="M39.9429 154.548C48.8209 149.985 58.6579 148.324 68.4369 149.784C71.3819 150.177 74.3029 150.583 77.1589 150.994C80.8339 151.493 84.4239 151.986 87.9249 152.509C96.7819 154.024 104.995 156.561 112.547 160.548C121.627 165.405 129.469 172.414 135.469 180.548C129.469 172.414 121.627 165.405 112.547 160.548C104.995 156.561 96.7819 154.024 87.9249 152.509C84.4239 151.986 80.8339 151.493 77.1589 150.994C74.3029 150.583 71.3819 150.177 68.4369 149.784C58.6579 148.324 48.8209 149.985 39.9429 154.548Z" fill="#24C8DB"/>
</svg>